<mxfile host="Electron" modified="2023-05-12T08:26:46.056Z" agent="Mozilla/5.0 (Macintosh; Intel Mac OS X 10_15_7) AppleWebKit/537.36 (KHTML, like Gecko) draw.io/21.2.8 Chrome/112.0.5615.165 Electron/24.2.0 Safari/537.36" etag="2matInFqGOST-_W2oRc7" version="21.2.8" type="device" pages="2">
  <diagram name="镜像生成过程" id="2p9RjubmjUR03VWtuXiu">
    <mxGraphModel dx="853" dy="589" grid="1" gridSize="10" guides="1" tooltips="1" connect="1" arrows="1" fold="1" page="1" pageScale="1" pageWidth="827" pageHeight="1169" math="0" shadow="0">
      <root>
        <mxCell id="0" />
        <mxCell id="1" parent="0" />
        <mxCell id="rb-zn7ehhzcilgUQOnAS-1" value="FROM centos:7" style="rounded=0;whiteSpace=wrap;html=1;fillColor=#dae8fc;gradientColor=#7ea6e0;strokeColor=#6c8ebf;" parent="1" vertex="1">
          <mxGeometry x="280" y="420" width="140" height="60" as="geometry" />
        </mxCell>
        <mxCell id="rb-zn7ehhzcilgUQOnAS-2" value="LABEL auth=&quot;Tom&quot;" style="rounded=0;whiteSpace=wrap;html=1;fillColor=#dae8fc;gradientColor=#7ea6e0;strokeColor=#6c8ebf;" parent="1" vertex="1">
          <mxGeometry x="280" y="490" width="140" height="60" as="geometry" />
        </mxCell>
        <mxCell id="rb-zn7ehhzcilgUQOnAS-3" value="COPY hello.log /var/log/" style="rounded=0;whiteSpace=wrap;html=1;fillColor=#dae8fc;gradientColor=#7ea6e0;strokeColor=#6c8ebf;" parent="1" vertex="1">
          <mxGeometry x="280" y="560" width="140" height="60" as="geometry" />
        </mxCell>
        <mxCell id="rb-zn7ehhzcilgUQOnAS-4" value="RUN yum -y install vim" style="rounded=0;whiteSpace=wrap;html=1;fillColor=#dae8fc;gradientColor=#7ea6e0;strokeColor=#6c8ebf;" parent="1" vertex="1">
          <mxGeometry x="280" y="630" width="140" height="60" as="geometry" />
        </mxCell>
        <mxCell id="rb-zn7ehhzcilgUQOnAS-5" value="CMD /bin/bash" style="rounded=0;whiteSpace=wrap;html=1;fillColor=#dae8fc;gradientColor=#7ea6e0;strokeColor=#6c8ebf;" parent="1" vertex="1">
          <mxGeometry x="280" y="700" width="140" height="60" as="geometry" />
        </mxCell>
        <mxCell id="rb-zn7ehhzcilgUQOnAS-8" value="Dockerfile中唯一不可缺少的指令。&lt;font color=&quot;#ff0000&quot;&gt;该语句不会产生新的镜像层。&lt;/font&gt;兜兜风" style="rounded=1;whiteSpace=wrap;html=1;fillColor=#fff2cc;gradientColor=#ffd966;strokeColor=#d6b656;" parent="1" vertex="1">
          <mxGeometry x="440" y="420" width="240" height="60" as="geometry" />
        </mxCell>
        <mxCell id="HcQf9rBME8wVuHY0WxEL-1" value="仅修改上一步提取出的镜像JSON文件，在文件中添加&quot;LEBEL=...&quot;。不更新文件系统。因为更新的JSON文件，所以产生新镜像层。" style="rounded=1;whiteSpace=wrap;html=1;fillColor=#fff2cc;gradientColor=#ffd966;strokeColor=#d6b656;" vertex="1" parent="1">
          <mxGeometry x="440" y="490" width="240" height="60" as="geometry" />
        </mxCell>
        <mxCell id="nQ6l53W6aGRdywiJQQua-1" value="改变镜像文件系统，所以产生新镜像层。" style="rounded=1;whiteSpace=wrap;html=1;fillColor=#fff2cc;gradientColor=#ffd966;strokeColor=#d6b656;" vertex="1" parent="1">
          <mxGeometry x="440" y="560" width="240" height="60" as="geometry" />
        </mxCell>
        <mxCell id="nQ6l53W6aGRdywiJQQua-2" value="RUN本身不改变文件系统，但该指令执行结果是下载并安装vim。会改拜年镜像文件系统，所以产生新镜像层。" style="rounded=1;whiteSpace=wrap;html=1;fillColor=#fff2cc;gradientColor=#ffd966;strokeColor=#d6b656;" vertex="1" parent="1">
          <mxGeometry x="440" y="630" width="240" height="60" as="geometry" />
        </mxCell>
        <mxCell id="31R6zXe9aDPenXTZmZi8-1" value="CMD或ENTRYPOINT本身不改变文件系统，但会更新JSON文件，所以产生新镜像层。" style="rounded=1;whiteSpace=wrap;html=1;fillColor=#fff2cc;gradientColor=#ffd966;strokeColor=#d6b656;" vertex="1" parent="1">
          <mxGeometry x="440" y="700" width="240" height="60" as="geometry" />
        </mxCell>
        <mxCell id="31R6zXe9aDPenXTZmZi8-2" value="编译顺序" style="shape=flexArrow;endArrow=classic;html=1;rounded=0;endWidth=27.857142857142858;endSize=8.835714285714285;width=27.857142857142858;horizontal=0;verticalAlign=middle;fillColor=#d5e8d4;gradientColor=#97d077;strokeColor=#82b366;labelBackgroundColor=none;" edge="1" parent="1">
          <mxGeometry width="50" height="50" relative="1" as="geometry">
            <mxPoint x="230" y="420" as="sourcePoint" />
            <mxPoint x="230" y="760" as="targetPoint" />
          </mxGeometry>
        </mxCell>
      </root>
    </mxGraphModel>
  </diagram>
  <diagram id="a9zAA-iNf3n8CZ6DMFAG" name="镜像组成">
    <mxGraphModel dx="-340" dy="-833" grid="1" gridSize="10" guides="1" tooltips="1" connect="1" arrows="1" fold="1" page="1" pageScale="1" pageWidth="827" pageHeight="1169" math="0" shadow="0">
      <root>
        <mxCell id="0" />
        <mxCell id="1" parent="0" />
        <mxCell id="hBq01CQ6Xy03TYXitsBO-5" value="ImageID" style="rounded=0;whiteSpace=wrap;html=1;verticalAlign=top;fillColor=#dae8fc;gradientColor=#7ea6e0;strokeColor=#6c8ebf;" parent="1" vertex="1">
          <mxGeometry x="1117.5" y="1310" width="145" height="210" as="geometry" />
        </mxCell>
        <mxCell id="hBq01CQ6Xy03TYXitsBO-1" value="文件系统" style="rounded=0;whiteSpace=wrap;html=1;fillColor=#f5f5f5;gradientColor=#b3b3b3;strokeColor=#666666;" parent="1" vertex="1">
          <mxGeometry x="1130" y="1340" width="120" height="60" as="geometry" />
        </mxCell>
        <mxCell id="hBq01CQ6Xy03TYXitsBO-2" value="JSON文件" style="rounded=0;whiteSpace=wrap;html=1;verticalAlign=top;fillColor=#f8cecc;gradientColor=#ea6b66;strokeColor=#b85450;" parent="1" vertex="1">
          <mxGeometry x="1130" y="1410" width="120" height="100" as="geometry" />
        </mxCell>
        <mxCell id="hBq01CQ6Xy03TYXitsBO-3" value="父镜像信息" style="rounded=1;whiteSpace=wrap;html=1;fillColor=#d5e8d4;gradientColor=#97d077;strokeColor=#82b366;" parent="1" vertex="1">
          <mxGeometry x="1145" y="1440" width="90" height="20" as="geometry" />
        </mxCell>
        <mxCell id="hBq01CQ6Xy03TYXitsBO-4" value="在父镜像上做的操作" style="rounded=1;whiteSpace=wrap;html=1;fillColor=#fff2cc;gradientColor=#ffd966;strokeColor=#d6b656;" parent="1" vertex="1">
          <mxGeometry x="1145" y="1470" width="90" height="30" as="geometry" />
        </mxCell>
      </root>
    </mxGraphModel>
  </diagram>
</mxfile>
